<?xml version="1.0" encoding="UTF-8" standalone="no"?>
<!DOCTYPE svg PUBLIC "-//W3C//DTD SVG 1.1//EN" "http://www.w3.org/Graphics/SVG/1.1/DTD/svg11.dtd">
<svg width="100%" height="100%" viewBox="0 0 115 90" version="1.1" xmlns="http://www.w3.org/2000/svg" xmlns:xlink="http://www.w3.org/1999/xlink" xml:space="preserve" xmlns:serif="http://www.serif.com/" style="fill-rule:evenodd;clip-rule:evenodd;stroke-linecap:round;stroke-miterlimit:10;">
    <g transform="matrix(1,0,0,1,30.8274,4.03222)">
        <text x="7.054px" y="4.968px" style="font-family:monospace;font-size:13px;fill:rgb(167,169,167);">rotate</text>
    </g>
    <g transform="matrix(1,0,0,1,36.2398,44.418)">
        <text x="7.054px" y="4.968px" style="font-family:monospace;font-size:13px;fill:rgb(167,169,167);">move</text>
    </g>
    <g transform="matrix(1,0,0,1,36.9166,62.5015)">
        <text x="7.054px" y="4.968px" style="font-family:monospace;font-size:13px;fill:rgb(167,169,167);">drop</text>
    </g>
    <g transform="matrix(1,0,0,1,55.7451,0.375)">
        <clipPath id="_clip1">
            <rect x="17.182" y="9.208" width="26.645" height="28.75"/>
        </clipPath>
        <g clip-path="url(#_clip1)">
            <path d="M31.932,9.208C23.786,9.208 17.182,15.812 17.182,23.958C17.182,23.958 17.182,38.333 17.182,38.333C17.182,38.54 17.35,38.708 17.557,38.708C17.764,38.708 17.932,38.54 17.932,38.333L17.932,23.958C17.932,16.226 24.2,9.958 31.932,9.958L31.932,9.583L31.932,9.958C38.088,9.958 43.077,14.948 43.077,21.103L43.452,21.103L43.077,21.103C43.077,25.995 39.112,29.96 34.22,29.96L34.22,30.335L34.22,29.96C30.341,29.96 27.197,26.816 27.197,22.937L26.822,22.937L27.197,22.937C27.197,20.118 29.297,17.789 32.018,17.431L31.314,18.487C31.199,18.66 31.246,18.893 31.418,19.007C31.59,19.122 31.823,19.076 31.938,18.903L33.202,17.008L31.938,15.112C31.823,14.94 31.59,14.894 31.418,15.008C31.246,15.123 31.199,15.356 31.314,15.528L32.074,16.669C28.911,17.007 26.447,19.684 26.447,22.937C26.447,27.23 29.927,30.71 34.22,30.71C34.22,30.71 34.345,30.71 34.345,30.71C39.552,30.643 43.761,26.435 43.827,21.228L43.827,21.103C43.827,21.103 43.826,20.95 43.826,20.95C43.744,14.502 38.533,9.291 32.086,9.209L31.932,9.208Z" style="fill:rgb(167,169,167);"/>
        </g>
    </g>
    <g transform="matrix(-1,0,0,1,59.2549,0.375)">
        <clipPath id="_clip2">
            <rect x="17.182" y="9.208" width="26.645" height="28.75"/>
        </clipPath>
        <g clip-path="url(#_clip2)">
            <path d="M31.932,9.208C23.786,9.208 17.182,15.812 17.182,23.958C17.182,23.958 17.182,38.333 17.182,38.333C17.182,38.54 17.35,38.708 17.557,38.708C17.764,38.708 17.932,38.54 17.932,38.333L17.932,23.958C17.932,16.226 24.2,9.958 31.932,9.958L31.932,9.583L31.932,9.958C38.088,9.958 43.077,14.948 43.077,21.103L43.452,21.103L43.077,21.103C43.077,25.995 39.112,29.96 34.22,29.96L34.22,30.335L34.22,29.96C30.341,29.96 27.197,26.816 27.197,22.937L26.822,22.937L27.197,22.937C27.197,20.118 29.297,17.789 32.018,17.431L31.314,18.487C31.199,18.66 31.246,18.893 31.418,19.007C31.59,19.122 31.823,19.076 31.938,18.903L33.202,17.008L31.938,15.112C31.823,14.94 31.59,14.894 31.418,15.008C31.246,15.123 31.199,15.356 31.314,15.528L32.074,16.669C28.911,17.007 26.447,19.684 26.447,22.937C26.447,27.23 29.927,30.71 34.22,30.71C34.22,30.71 34.345,30.71 34.345,30.71C39.552,30.643 43.761,26.435 43.827,21.228L43.827,21.103C43.827,21.103 43.826,20.95 43.826,20.95C43.744,14.502 38.533,9.291 32.086,9.209L31.932,9.208Z" style="fill:rgb(167,169,167);"/>
        </g>
    </g>
    <g transform="matrix(0.926783,0,0,1,2.105,-4.79167)">
        <path d="M43.125,57.5L14.375,57.5" style="fill:none;"/>
        <g transform="matrix(1.079,-0,-0,1,-2.2713,4.79167)">
            <path d="M16.552,54.396L15.427,52.708L16.552,51.021" style="fill:none;stroke:rgb(167,169,167);stroke-width:0.75px;"/>
            <path d="M42.073,52.708L15.427,52.708" style="fill:none;stroke:rgb(167,169,167);stroke-width:0.75px;stroke-linejoin:round;stroke-miterlimit:1.5;"/>
        </g>
    </g>
    <g transform="matrix(-5.06277e-16,-0.530705,1,-1.24719e-15,-28.75,91.9244)">
        <path d="M43.125,57.5L14.375,57.5" style="fill:none;"/>
        <g transform="matrix(-2.35007e-15,1,-1.88429,-9.53971e-16,173.212,28.75)">
            <path d="M30.438,83.171L28.75,84.296L27.063,83.171" style="fill:none;stroke:rgb(167,169,167);stroke-width:0.75px;"/>
            <path d="M28.75,69.038L28.75,84.296" style="fill:none;stroke:rgb(167,169,167);stroke-width:0.75px;stroke-linejoin:round;stroke-miterlimit:1.5;"/>
        </g>
    </g>
    <g transform="matrix(-3.93127e-16,-0.530705,1,-1.55801e-15,28.75,91.9244)">
        <path d="M43.125,57.5L14.375,57.5" style="fill:none;"/>
        <g transform="matrix(-2.93574e-15,1,-1.88429,-7.40764e-16,173.212,-28.75)">
            <path d="M87.938,83.171L86.25,84.296L84.563,83.171" style="fill:none;stroke:rgb(167,169,167);stroke-width:0.75px;"/>
            <path d="M86.25,69.038L86.25,84.296" style="fill:none;stroke:rgb(167,169,167);stroke-width:0.75px;stroke-linejoin:round;stroke-miterlimit:1.5;"/>
        </g>
    </g>
    <g transform="matrix(-2.83711e-16,-0.0180096,1.08497,-7.24358e-17,23.8643,82.7615)">
        <path d="M43.125,57.5L14.375,57.5" style="fill:none;"/>
        <g transform="matrix(-3.70707e-15,0.921686,-55.5258,-1.45196e-14,4595.4,-21.9954)">
            <path d="M87.938,81.378L86.25,82.503L84.563,81.378" style="fill:none;stroke:rgb(167,169,167);stroke-width:0.75px;"/>
            <path d="M86.25,81.985L86.25,82.503" style="fill:none;stroke:rgb(167,169,167);stroke-width:0.75px;stroke-linejoin:round;stroke-miterlimit:1.5;"/>
        </g>
    </g>
    <g transform="matrix(-1.68075e-15,-0.120444,1.08497,8.41331e-14,-4.88569,27.6942)">
        <path d="M43.125,57.5L14.375,57.5" style="fill:none;"/>
        <g transform="matrix(6.43818e-13,0.921686,-8.30258,-1.28617e-14,229.933,4.50307)">
            <path d="M59.188,24.838L57.5,25.963L55.813,24.838" style="fill:none;stroke:rgb(167,169,167);stroke-width:0.75px;"/>
            <path d="M57.5,22.5L57.5,25.963" style="fill:none;stroke:rgb(167,169,167);stroke-width:0.75px;stroke-linejoin:round;stroke-miterlimit:1.5;"/>
        </g>
    </g>
    <g transform="matrix(-0.926783,0,0,1,112.895,-4.79167)">
        <path d="M43.125,57.5L14.375,57.5" style="fill:none;"/>
        <g transform="matrix(-1.079,0,0,1,121.814,4.79167)">
            <path d="M98.448,51.021L99.573,52.708L98.448,54.396" style="fill:none;stroke:rgb(167,169,167);stroke-width:0.75px;"/>
            <path d="M72.927,52.708L99.573,52.708" style="fill:none;stroke:rgb(167,169,167);stroke-width:0.75px;stroke-linejoin:round;stroke-miterlimit:1.5;"/>
        </g>
    </g>
</svg>
