<?xml version="1.0" encoding="UTF-8" standalone="no"?>
<!DOCTYPE svg PUBLIC "-//W3C//DTD SVG 1.1//EN" "http://www.w3.org/Graphics/SVG/1.1/DTD/svg11.dtd">
<svg width="100%" height="100%" viewBox="0 0 115 90" version="1.1" xmlns="http://www.w3.org/2000/svg" xmlns:xlink="http://www.w3.org/1999/xlink" xml:space="preserve" xmlns:serif="http://www.serif.com/" style="fill-rule:evenodd;clip-rule:evenodd;stroke-linecap:round;stroke-miterlimit:10;">
    <g transform="matrix(1,0,0,1,30.8274,4.03222)">
        <text x="7.054px" y="4.968px" style="font-family:monospace;font-size:13px;fill:rgb(167,169,167);">rotate</text>
    </g>
    <g transform="matrix(1,0,0,1,36.2398,44.418)">
        <text x="7.054px" y="4.968px" style="font-family:monospace;font-size:13px;fill:rgb(167,169,167);">move</text>
    </g>
    <g transform="matrix(1,0,0,1,36.9166,62.5015)">
        <text x="7.054px" y="4.968px" style="font-family:monospace;font-size:13px;fill:rgb(167,169,167);">drop</text>
    </g>
    <g transform="matrix(0.926783,0,0,1,2.105,-4.79167)">
        <path d="M43.125,57.5L14.375,57.5" style="fill:none;"/>
        <g transform="matrix(1.079,-0,-0,1,-2.2713,4.79167)">
            <path d="M19.327,58.558L15.427,52.708L19.327,46.858" style="fill:none;stroke:rgb(167,169,167);stroke-width:1px;"/>
            <path d="M42.073,52.708L15.427,52.708" style="fill:none;stroke:rgb(167,169,167);stroke-width:1px;stroke-linejoin:round;stroke-miterlimit:1.5;"/>
        </g>
    </g>
    <g transform="matrix(-5.06277e-16,-0.530705,1,-1.24719e-15,-28.75,91.9244)">
        <path d="M43.125,57.5L14.375,57.5" style="fill:none;"/>
        <g transform="matrix(-2.35007e-15,1,-1.88429,-9.53971e-16,173.212,28.75)">
            <path d="M34.6,80.396L28.75,84.296L22.9,80.396" style="fill:none;stroke:rgb(167,169,167);stroke-width:1px;"/>
            <path d="M28.75,69.038L28.75,84.296" style="fill:none;stroke:rgb(167,169,167);stroke-width:1px;stroke-linejoin:round;stroke-miterlimit:1.5;"/>
        </g>
    </g>
    <g transform="matrix(-1.68075e-15,-0.120444,1.08497,8.41331e-14,-4.88569,27.6942)">
        <path d="M43.125,57.5L14.375,57.5" style="fill:none;"/>
        <g transform="matrix(6.43818e-13,0.921686,-8.30258,-1.28617e-14,229.933,4.50307)">
            <path d="M59.75,24.463L57.5,25.963L55.25,24.463" style="fill:none;stroke:rgb(167,169,167);stroke-width:1px;"/>
            <path d="M57.5,22.5L57.5,25.963" style="fill:none;stroke:rgb(167,169,167);stroke-width:1px;stroke-linejoin:round;stroke-miterlimit:1.5;"/>
        </g>
    </g>
    <g transform="matrix(-0.926783,0,0,1,112.895,-4.79167)">
        <path d="M43.125,57.5L14.375,57.5" style="fill:none;"/>
        <g transform="matrix(-1.079,0,0,1,121.814,4.79167)">
            <path d="M95.673,46.858L99.573,52.708L95.673,58.558" style="fill:none;stroke:rgb(167,169,167);stroke-width:1px;"/>
            <path d="M72.927,52.708L99.573,52.708" style="fill:none;stroke:rgb(167,169,167);stroke-width:1px;stroke-linejoin:round;stroke-miterlimit:1.5;"/>
        </g>
    </g>
    <g transform="matrix(2.55357,0,0,2.99165,-133.992,-152.742)">
        <path d="M83.975,76.854L86.25,78.203L88.52,76.826" style="fill:none;stroke:rgb(167,169,167);stroke-width:0.36px;stroke-linejoin:round;stroke-miterlimit:1.5;"/>
    </g>
    <g transform="matrix(2.55357,0,0,2.99165,-133.986,-157.837)">
        <path d="M83.975,76.854L86.25,78.203L88.52,76.826" style="fill:none;stroke:rgb(167,169,167);stroke-width:0.36px;stroke-linejoin:round;stroke-miterlimit:1.5;"/>
    </g>
    <g transform="matrix(1,0,0,1,-27.7889,-53.0294)">
        <path d="M85.289,72C88.192,72 90.55,74.357 90.55,77.261C90.55,80.164 88.192,82.522 85.289,82.522C82.385,82.522 80.028,80.164 80.028,77.261C80.028,74.357 82.385,72 85.289,72ZM85.289,72C88.192,72 90.55,74.357 90.55,77.261C90.55,80.164 88.192,82.522 85.289,82.522C82.385,82.522 80.028,80.164 80.028,77.261C80.028,74.357 82.385,72 85.289,72Z" style="fill:rgb(167,169,167);stroke:rgb(167,169,167);stroke-width:1px;stroke-linejoin:round;stroke-miterlimit:1.5;"/>
    </g>
    <g id="spiral" transform="matrix(2.19787,0,0,2.31308,-100.092,-71.173)">
        <g transform="matrix(1,0,0,1,-1.71439,7.15663)">
            <path d="M66.169,34.652L66.169,38.51" style="fill:none;stroke:rgb(167,169,167);stroke-width:0.44px;stroke-linejoin:round;stroke-miterlimit:1.5;"/>
        </g>
        <g transform="matrix(1.09919,0,0,1.09841,28.8454,15.087)">
            <path d="M32.396,24.327C32.396,20.833 29.563,18 26.069,18C29.563,18 32.396,20.833 32.396,24.327Z" style="fill:rgb(167,169,167);stroke:rgb(167,169,167);stroke-width:0.4px;stroke-linejoin:round;stroke-miterlimit:1.5;"/>
        </g>
        <g transform="matrix(5.38064e-17,-0.878726,0.70248,4.30145e-17,40.4105,63.3257)">
            <path d="M32.396,24.327C32.396,20.833 29.563,18 26.069,18C29.563,18 32.396,20.833 32.396,24.327Z" style="fill:rgb(167,169,167);stroke:rgb(167,169,167);stroke-width:0.55px;stroke-linejoin:round;stroke-miterlimit:1.5;"/>
        </g>
        <g transform="matrix(-0.701716,-8.59354e-17,6.86994e-17,-0.560973,75.7929,54.147)">
            <path d="M32.396,24.327C32.396,20.833 29.563,18 26.069,18C29.563,18 32.396,20.833 32.396,24.327Z" style="fill:rgb(167,169,167);stroke:rgb(167,169,167);stroke-width:0.7px;stroke-linejoin:round;stroke-miterlimit:1.5;"/>
        </g>
        <g transform="matrix(-1.02937e-16,0.560363,-0.447972,-8.22911e-17,68.4632,25.892)">
            <path d="M32.396,24.327C32.396,20.833 29.563,18 26.069,18C29.563,18 32.396,20.833 32.396,24.327Z" style="fill:rgb(167,169,167);stroke:rgb(167,169,167);stroke-width:0.87px;stroke-linejoin:round;stroke-miterlimit:1.5;"/>
        </g>
        <g transform="matrix(-1.97549e-16,-0.425196,-0.376485,1.4897e-16,67.1754,51.5815)">
            <path d="M32.396,24.327C32.396,20.833 29.563,18 26.069,18C29.563,18 32.396,20.833 32.396,24.327Z" style="fill:rgb(167,169,167);"/>
            <g transform="matrix(-4.23408e-16,-1.20851,-1.01676,5.33516e-16,48.9461,57.4651)">
                <path d="M28.92,14.027L27.42,16.277L28.92,18.527" style="fill:none;stroke:rgb(167,169,167);stroke-width:1px;"/>
                <path d="M27.42,16.277C30.312,16.277 32.656,19.063 32.656,22.5C32.656,19.063 30.312,16.277 27.42,16.277Z" style="fill:none;stroke:rgb(167,169,167);stroke-width:1px;stroke-linejoin:round;stroke-miterlimit:1.5;"/>
            </g>
        </g>
    </g>
    <g id="spiral1" serif:id="spiral" transform="matrix(-2.19787,0,0,2.31308,215.386,-71.173)">
        <g transform="matrix(1,0,0,1,-1.71439,7.15663)">
            <path d="M66.169,34.652L66.169,38.51" style="fill:none;stroke:rgb(167,169,167);stroke-width:0.44px;stroke-linejoin:round;stroke-miterlimit:1.5;"/>
        </g>
        <g transform="matrix(1.09919,0,0,1.09841,28.8454,15.087)">
            <path d="M32.396,24.327C32.396,20.833 29.563,18 26.069,18C29.563,18 32.396,20.833 32.396,24.327Z" style="fill:rgb(167,169,167);stroke:rgb(167,169,167);stroke-width:0.4px;stroke-linejoin:round;stroke-miterlimit:1.5;"/>
        </g>
        <g transform="matrix(5.38064e-17,-0.878726,0.70248,4.30145e-17,40.4105,63.3257)">
            <path d="M32.396,24.327C32.396,20.833 29.563,18 26.069,18C29.563,18 32.396,20.833 32.396,24.327Z" style="fill:rgb(167,169,167);stroke:rgb(167,169,167);stroke-width:0.55px;stroke-linejoin:round;stroke-miterlimit:1.5;"/>
        </g>
        <g transform="matrix(-0.701716,-8.59354e-17,6.86994e-17,-0.560973,75.7929,54.147)">
            <path d="M32.396,24.327C32.396,20.833 29.563,18 26.069,18C29.563,18 32.396,20.833 32.396,24.327Z" style="fill:rgb(167,169,167);stroke:rgb(167,169,167);stroke-width:0.7px;stroke-linejoin:round;stroke-miterlimit:1.5;"/>
        </g>
        <g transform="matrix(-1.02937e-16,0.560363,-0.447972,-8.22911e-17,68.4632,25.892)">
            <path d="M32.396,24.327C32.396,20.833 29.563,18 26.069,18C29.563,18 32.396,20.833 32.396,24.327Z" style="fill:rgb(167,169,167);stroke:rgb(167,169,167);stroke-width:0.87px;stroke-linejoin:round;stroke-miterlimit:1.5;"/>
        </g>
        <g transform="matrix(-1.97549e-16,-0.425196,-0.376485,1.4897e-16,67.1754,51.5815)">
            <path d="M32.396,24.327C32.396,20.833 29.563,18 26.069,18C29.563,18 32.396,20.833 32.396,24.327Z" style="fill:rgb(167,169,167);"/>
            <g transform="matrix(4.23408e-16,1.20851,-1.01676,5.33516e-16,48.9461,-81.8685)">
                <path d="M86.373,18.527L87.873,16.277L86.373,14.027" style="fill:none;stroke:rgb(167,169,167);stroke-width:1px;"/>
                <path d="M87.873,16.277C84.982,16.277 82.638,19.063 82.638,22.5C82.638,19.063 84.982,16.277 87.873,16.277Z" style="fill:none;stroke:rgb(167,169,167);stroke-width:1px;stroke-linejoin:round;stroke-miterlimit:1.5;"/>
            </g>
        </g>
    </g>
</svg>
